<?xml version="1.0" encoding="UTF-8"?>
<svg version="1.1" xmlns="http://www.w3.org/2000/svg" width="500" height="500">
<path d="M0 0 C165 0 330 0 500 0 C500 165 500 330 500 500 C335 500 170 500 0 500 C0 335 0 170 0 0 Z " fill="#1D938B" transform="translate(0,0)"/>
<path d="M0 0 C3.50810529 3.33835826 4.81849958 4.92001615 5.62890625 9.7421875 C5.63942846 11.11992931 5.61564132 12.49824323 5.5625 13.875 C5.54517822 14.62257568 5.52785645 15.37015137 5.51000977 16.14038086 C5.21675156 23.22111134 3.68430542 29.78023352 1.70516968 36.57444763 C0.96649295 39.11525327 0.23995157 41.65934293 -0.48583984 44.20385742 C-4.68349815 58.83250567 -9.23702651 73.31693445 -14.0625 87.75 C-14.42927856 88.84885529 -14.79605713 89.94771057 -15.1739502 91.0798645 C-25.37989534 121.57302912 -35.99227094 153.02570617 -51.78686523 181.18579102 C-57.27391976 191.20330672 -59.25079194 201.02554092 -61.1875 212.1875 C-61.50514321 213.93851836 -61.82479806 215.68917302 -62.14648438 217.43945312 C-62.62842827 220.06249355 -63.10865693 222.68571459 -63.58024597 225.31063843 C-64.58251578 230.86495768 -65.70363554 236.38055712 -66.90625 241.89453125 C-69.65770736 254.6514652 -71.78401282 267.52591569 -73.9563179 280.39146423 C-74.3162874 282.52242073 -74.67772093 284.65312551 -75.03927612 286.78381348 C-79.19760362 311.33241878 -82.81713699 335.92791026 -86.01817322 360.62117004 C-86.64563179 365.43677815 -87.33471573 370.23326541 -88.11328125 375.02734375 C-89.15326588 381.59764379 -89.66391901 388.17973655 -90.125 394.8125 C-90.21136719 395.99392578 -90.29773438 397.17535156 -90.38671875 398.39257812 C-90.59578402 401.26141816 -90.8001539 404.13050561 -91 407 C-90.05125 407.12375 -89.1025 407.2475 -88.125 407.375 C-85 408 -85 408 -83 410 C-81.88321403 415.58392983 -84.58142011 419.24379574 -87.39453125 423.828125 C-89.22893547 426.30970345 -90.82252534 427.79584109 -93.9375 428.3359375 C-99.52771732 428.44181283 -99.52771732 428.44181283 -101.9375 426.1875 C-109.64098254 410.32738888 -103.23848416 384.28738741 -101.125 367.5 C-100.99012177 366.42860779 -100.85524353 365.35721558 -100.71627808 364.25335693 C-99.47538441 354.49877421 -98.22459908 344.74583666 -96.53222656 335.05761719 C-95.82765784 331.00990219 -95.17486638 326.95437254 -94.51953125 322.8984375 C-94.24327163 321.19415574 -93.96690152 319.48989188 -93.69042969 317.78564453 C-93.5474646 316.90410706 -93.40449951 316.02256958 -93.25720215 315.11431885 C-92.00504888 307.40118535 -90.74573371 299.68921708 -89.48614502 291.97729492 C-89.16311759 289.99898006 -88.84032145 288.02062742 -88.51776123 286.04223633 C-87.58273963 280.30800885 -86.64326133 274.57454484 -85.69735718 268.84210205 C-85.40293732 267.05389155 -85.10995004 265.26544449 -84.81851196 263.47674561 C-83.34182735 254.42044629 -81.78765099 245.46475609 -79.54199219 236.56201172 C-78.86202074 233.78422054 -78.86202074 233.78422054 -79 230 C-79.58265625 230.95777344 -80.1653125 231.91554688 -80.765625 232.90234375 C-109.30930446 279.42387553 -109.30930446 279.42387553 -126 284 C-130.37028332 284.69089038 -133.28998524 284.36866151 -137.25 282.3125 C-143.83981085 276.77106815 -145.66867736 271.39607854 -147 263 C-148.93421861 236.81365569 -138.77778421 211.78319599 -122 192 C-115.02168204 184.04939435 -105.87580124 175.8573657 -94.9140625 174.6640625 C-83.3676815 174.52693208 -83.3676815 174.52693208 -78 179 C-74.76605724 183.03622524 -73 185.74155527 -73 191 C-72.34 191 -71.68 191 -71 191 C-70.79246094 189.88109375 -70.58492188 188.7621875 -70.37109375 187.609375 C-68.16859619 176.04380465 -65.47769235 164.64748748 -62.57470703 153.23852539 C-60.56547569 145.32656837 -58.69988239 137.40584484 -57.01953125 129.41796875 C-33.86601295 25.29630767 -33.86601295 25.29630767 -8 1 C-5.074084 -0.462958 -3.24382653 -0.44523109 0 0 Z " fill="#000202" transform="translate(357,56)"/>
<path d="M0 0 C4.40344528 2.0858425 4.40344528 2.0858425 6 5 C8.21656091 14.28268842 5.02882648 21.64018268 0.34375 29.42578125 C-3.00149984 34.6624911 -6.85694794 39.37700324 -11 44 C-12.15048828 45.31291016 -12.15048828 45.31291016 -13.32421875 46.65234375 C-24.48396111 59.25205287 -24.48396111 59.25205287 -29.73828125 62.90234375 C-38.44747956 69.09683314 -40.1983669 74.86967447 -42 85 C-42.3552867 86.39718172 -42.71076565 87.79431457 -43.06640625 89.19140625 C-44.34672552 94.91654996 -44.36797034 100.59233867 -44.375 106.4375 C-44.41173828 108.03948242 -44.41173828 108.03948242 -44.44921875 109.67382812 C-44.47888842 117.76870214 -43.32650977 126.0566081 -37.4375 132.125 C-31.93712479 135.12520466 -26.67765637 134.99513055 -20.67578125 133.37109375 C-0.10231908 125.13432164 18.75960605 103.20365568 32 86 C33.11101829 84.58127825 34.22308757 83.16337921 35.3359375 81.74609375 C36.5577233 80.18523361 37.77906884 78.62402875 39 77.0625 C39.60408691 76.29067383 40.20817383 75.51884766 40.83056641 74.72363281 C43.52796768 71.25774742 46.1847438 67.78545218 48.6875 64.17578125 C49.08453125 63.61173584 49.4815625 63.04769043 49.890625 62.46655273 C50.92244872 60.9862581 51.9309752 59.489799 52.9375 57.9921875 C55 56 55 56 58.09765625 55.59375 C61 56 61 56 63.4375 57.625 C65 60 65 60 64.80273438 62.84887695 C63.94009389 66.23516064 62.85645432 68.05538107 60.71875 70.79296875 C60.04618164 71.66493896 59.37361328 72.53690918 58.68066406 73.43530273 C57.96104492 74.34352783 57.24142578 75.25175293 56.5 76.1875 C55.76749023 77.12859619 55.03498047 78.06969238 54.28027344 79.03930664 C52.19986702 81.70347234 50.10404754 84.35448532 48 87 C47.52369141 87.60134766 47.04738281 88.20269531 46.55664062 88.82226562 C44.08902555 91.92590547 41.55758933 94.97031085 39 98 C38.10667608 99.07934867 37.21345346 100.15878118 36.3203125 101.23828125 C25.70702389 113.95705456 14.24027341 125.98856627 1 136 C0.15953125 136.64582031 -0.6809375 137.29164063 -1.546875 137.95703125 C-11.57700111 145.35502799 -22.42831864 149.577147 -35 148 C-43.44592679 144.94067335 -49.50628352 140.10974058 -53.43359375 132.0625 C-60.4888011 115.75357876 -59.15461743 98.00353184 -55 81 C-54.82839355 80.26604004 -54.65678711 79.53208008 -54.47998047 78.77587891 C-48.10059355 51.70196606 -37.00484446 17.68251771 -12.5625 1.5 C-8.13746117 -0.36317424 -4.72178 -0.92382652 0 0 Z " fill="#000202" transform="translate(371,203)"/>
<path d="M0 0 C2.9582743 2.25392328 3.90516899 3.41116559 4.50390625 7.12890625 C4.52324219 8.26199219 4.54257812 9.39507812 4.5625 10.5625 C4.41248991 15.05293519 4.41248991 15.05293519 6.58984375 18.65234375 C7.05519531 19.09707031 7.52054687 19.54179687 8 20 C7.54540126 23.21463159 6.20783152 25.58194621 4.515625 28.31640625 C3.74049561 29.57275879 3.74049561 29.57275879 2.94970703 30.85449219 C2.38880371 31.74813477 1.82790039 32.64177734 1.25 33.5625 C0.67233887 34.48836914 0.09467773 35.41423828 -0.50048828 36.36816406 C-4.50767414 42.74278882 -8.63139901 49.03043319 -12.875 55.25 C-13.64021973 56.37257202 -13.64021973 56.37257202 -14.42089844 57.51782227 C-30.72111063 81.1267542 -30.72111063 81.1267542 -38 84 C-40.6875 83.9375 -40.6875 83.9375 -43 83 C-47.7114744 75.53555849 -45.84860579 62.1983565 -44.3828125 53.84375 C-42.05639879 44.20869143 -37.79695869 35.60699446 -33 27 C-32.443125 25.98808594 -31.88625 24.97617187 -31.3125 23.93359375 C-25.57828199 14.24331669 -13.05653876 -2.73276393 0 0 Z " fill="#1B9189" transform="translate(268,243)"/>
<path d="M0 0 C1.23164476 3.69493427 0.62770241 5.09850534 -0.44921875 8.80859375 C-0.79645996 10.01193359 -1.14370117 11.21527344 -1.50146484 12.45507812 C-1.89601414 13.78278882 -2.29138475 15.11025566 -2.6875 16.4375 C-2.8874054 17.11627197 -3.08731079 17.79504395 -3.29327393 18.49438477 C-11.49690768 46.32869077 -21.16788809 73.70680734 -31 101 C-32.5396257 97.01874565 -31.44138719 94.01290301 -30.33203125 90 C-30.14146652 89.30453568 -29.95090179 88.60907135 -29.75456238 87.89253235 C-29.11897547 85.59155464 -28.46704167 83.29565302 -27.8125 81 C-27.58925049 80.20733734 -27.36600098 79.41467468 -27.13598633 78.59799194 C-19.59378675 51.86642877 -10.8042742 25.59670331 0 0 Z " fill="#198780" transform="translate(347,82)"/>
<path d="M0 0 C0.33 0.66 0.66 1.32 1 2 C-1.19686281 7.81835787 -5.26711631 12.89752491 -9 17.8125 C-9.41483643 18.36333252 -9.82967285 18.91416504 -10.25708008 19.48168945 C-12.86106697 22.8344952 -15.58643496 25.48249578 -19 28 C-17.38930736 16.78555247 -7.68441478 7.68441478 0 0 Z " fill="#1A8881" transform="translate(363,217)"/>
<path d="M0 0 C0.33 0.66 0.66 1.32 1 2 C1.66 2.33 2.32 2.66 3 3 C0.69 9.6 -1.62 16.2 -4 23 C-4.97635244 19.09459026 -5.01404823 18.09949116 -4.00390625 14.453125 C-3.77509766 13.60878906 -3.54628906 12.76445312 -3.31054688 11.89453125 C-3.06369141 11.02183594 -2.81683594 10.14914063 -2.5625 9.25 C-2.31951172 8.36183594 -2.07652344 7.47367188 -1.82617188 6.55859375 C-1.22603684 4.36986597 -0.61706655 2.18400314 0 0 Z " fill="#15726B" transform="translate(320,160)"/>
<path d="M0 0 C1.21065165 3.63195496 0.62784815 5.06531629 -0.4375 8.6875 C-0.72496094 9.68136719 -1.01242187 10.67523438 -1.30859375 11.69921875 C-1.53675781 12.45847656 -1.76492188 13.21773437 -2 14 C-2.99 14 -3.98 14 -5 14 C-3.45730076 9.27934033 -1.92205381 4.58335908 0 0 Z " fill="#16736D" transform="translate(347,82)"/>
</svg>
